<?xml version="1.0" encoding="UTF-8" standalone="no"?>
<!-- Created with Inkscape (http://www.inkscape.org/) -->

<svg
   xmlns:dc="http://purl.org/dc/elements/1.1/"
   xmlns:cc="http://creativecommons.org/ns#"
   xmlns:rdf="http://www.w3.org/1999/02/22-rdf-syntax-ns#"
   xmlns:svg="http://www.w3.org/2000/svg"
   xmlns="http://www.w3.org/2000/svg"
   xmlns:sodipodi="http://sodipodi.sourceforge.net/DTD/sodipodi-0.dtd"
   xmlns:inkscape="http://www.inkscape.org/namespaces/inkscape"
   width="400"
   height="114.92818"
   id="svg3387"
   version="1.1"
   inkscape:version="0.47 r22583"
   sodipodi:docname="Nouveau document 4">
  <defs
     id="defs3389">
    <inkscape:perspective
       sodipodi:type="inkscape:persp3d"
       inkscape:vp_x="0 : 526.18109 : 1"
       inkscape:vp_y="0 : 1000 : 0"
       inkscape:vp_z="744.09448 : 526.18109 : 1"
       inkscape:persp3d-origin="372.04724 : 350.78739 : 1"
       id="perspective3395" />
    <inkscape:perspective
       id="perspective3301"
       inkscape:persp3d-origin="0.5 : 0.33333333 : 1"
       inkscape:vp_z="1 : 0.5 : 1"
       inkscape:vp_y="0 : 1000 : 0"
       inkscape:vp_x="0 : 0.5 : 1"
       sodipodi:type="inkscape:persp3d" />
    <clipPath
       clipPathUnits="userSpaceOnUse"
       id="clipPath3238">
      <path
         d="m 63.555,65.015 150.924,0 0,57.539 -150.924,0 0,-57.539 z"
         id="path3240" />
    </clipPath>
  </defs>
  <sodipodi:namedview
     id="base"
     pagecolor="#ffffff"
     bordercolor="#666666"
     borderopacity="1.0"
     inkscape:pageopacity="0.0"
     inkscape:pageshadow="2"
     inkscape:zoom="1.4"
     inkscape:cx="332.14286"
     inkscape:cy="6.0355153"
     inkscape:document-units="px"
     inkscape:current-layer="layer1"
     showgrid="false"
     inkscape:window-width="1280"
     inkscape:window-height="738"
     inkscape:window-x="-8"
     inkscape:window-y="-8"
     inkscape:window-maximized="1" />
  <metadata
     id="metadata3392">
    <rdf:RDF>
      <cc:Work
         rdf:about="">
        <dc:format>image/svg+xml</dc:format>
        <dc:type
           rdf:resource="http://purl.org/dc/dcmitype/StillImage" />
        <dc:title></dc:title>
      </cc:Work>
    </rdf:RDF>
  </metadata>
  <g
     inkscape:label="Calque 1"
     inkscape:groupmode="layer"
     id="layer1"
     transform="translate(-42.857142,-366.32666)">
    <g
       transform="matrix(3.1411671,0,0,-3.1411671,-192.43448,713.22616)"
       id="g3234">
      <g
         id="g3236"
         clip-path="url(#clipPath3238)">
        <g
           id="g3242"
           transform="translate(126.11501,79.620407)">
          <path
             d="m 0,0 -0.001,7.965 -0.061,0 C -0.344,7.703 -1.392,7.683 -1.835,7.683 l -0.769,0 0,-0.065 c 0.888,-0.545 0.767,-1.353 0.767,-2.355 l 0.002,-3.371 c 0,-1.686 -1.656,-2.868 -2.99,-2.868 -1.759,0 -2.487,1.247 -2.487,3.261 l 0,5.68 -0.062,0 C -7.656,7.703 -8.71,7.683 -9.154,7.683 l -0.762,0 0,-0.065 c 0.888,-0.545 0.768,-1.353 0.768,-2.355 l 0,-3.36 c 0,-3.075 1.334,-4.537 3.717,-4.537 1.415,0 2.868,0.502 3.596,1.7 l 0,-1.451 2.602,0 0,0.065 C -0.121,-1.816 0,-1.006 0,0"
             style="fill:#231f20;fill-opacity:1;fill-rule:nonzero;stroke:none"
             id="path3244" />
        </g>
        <g
           id="g3246"
           transform="translate(130.15021,83.879806)">
          <path
             d="M 0,0 C 0.243,1.368 1.255,2.237 2.609,2.237 4.065,2.237 4.994,1.52 5.216,0 L 0,0 z M 7.338,-1.271 C 7.421,1.542 5.54,3.661 2.791,3.661 c -3.012,0 -5.052,-2.184 -5.052,-5.215 0,-3.055 2.363,-5.382 5.8,-5.382 0.951,0 1.92,0.152 2.79,0.541 l 1.009,2.05 -0.059,0 C 6.348,-5.136 5.177,-5.511 3.962,-5.511 c -2.282,0 -4.001,1.56 -4.042,4.24 l 7.418,0 z"
             style="fill:#231f20;fill-opacity:1;fill-rule:nonzero;stroke:none"
             id="path3248" />
        </g>
        <g
           id="g3250"
           transform="translate(139.09489,92.211197)">
          <path
             d="m 0,0 c 0.482,0 1.471,0.031 1.769,0.324 l 0.06,0 0,-13.793 c 0.543,-0.152 1.106,-0.261 1.667,-0.261 2.21,0 3.474,1.546 3.474,3.7 0,2.11 -0.982,3.742 -3.011,3.742 -0.643,0 -1.146,-0.174 -1.688,-0.479 l 1.085,1.857 c 0.462,0.174 0.945,0.24 1.425,0.24 2.292,0 4.24,-1.988 4.24,-4.969 0,-3.416 -2.312,-5.624 -5.966,-5.624 -1.367,0 -2.677,0.241 -3.668,0.393 l 0,0.066 c 0.668,0.307 0.606,1.032 0.606,1.749 l 0,10.028 c 0,1.005 0.123,2.415 -0.745,2.963 L -0.752,0 0,0 z"
             style="fill:#231f20;fill-opacity:1;fill-rule:nonzero;stroke:none"
             id="path3252" />
        </g>
        <g
           id="g3254"
           transform="translate(151.70351,83.879806)">
          <path
             d="M 0,0 C 0.243,1.368 1.253,2.237 2.607,2.237 4.064,2.237 4.993,1.52 5.216,0 L 0,0 z M 7.338,-1.271 C 7.419,1.542 5.54,3.661 2.789,3.661 c -3.012,0 -5.053,-2.184 -5.053,-5.215 0,-3.055 2.364,-5.382 5.803,-5.382 0.949,0 1.919,0.152 2.789,0.541 l 1.01,2.05 -0.06,0 C 6.347,-5.136 5.175,-5.511 3.963,-5.511 c -2.284,0 -4.002,1.56 -4.044,4.24 l 7.419,0 z"
             style="fill:#231f20;fill-opacity:1;fill-rule:nonzero;stroke:none"
             id="path3256" />
        </g>
        <g
           id="g3258"
           transform="translate(168.0826,85.042602)">
          <path
             d="m 0,0 -0.059,0 c -0.588,0.723 -1.559,1.074 -2.469,1.074 -1.96,0 -3.373,-1.489 -3.373,-3.568 0,-2.515 1.96,-4.18 4.202,-4.18 1.032,0 2.164,0.439 2.954,1.074 l 0.06,0 -1.051,-2.067 c -0.851,-0.345 -1.779,-0.432 -2.669,-0.432 -3.112,0 -5.545,2.192 -5.545,5.036 0,3.764 2.715,5.562 5.768,5.562 0.727,0 1.475,-0.086 2.182,-0.258 L 0,0 z"
             style="fill:#231f20;fill-opacity:1;fill-rule:nonzero;stroke:none"
             id="path3260" />
        </g>
        <g
           id="g3262"
           transform="translate(134.9666,89.347)">
          <path
             d="M 0,0 0,2.188 C -1.324,1.595 -2.554,0.484 -3.376,-0.596 l 0,-0.853 C -1.409,-0.123 0,-0.062 0,0"
             style="fill:#231f20;fill-opacity:1;fill-rule:evenodd;stroke:none"
             id="path3264" />
        </g>
        <g
           id="g3266"
           transform="translate(107.87959,78.448196)">
          <path
             d="m 0,0 c -3.053,0 -5.176,3.444 -5.176,6.37 l 0,0.33 c 0.038,2.833 1.873,5.492 5.075,5.492 3.369,0 5.107,-3.187 5.135,-6.206 l 0,-0.315 C 5.034,2.452 3.033,0 0,0 m 10.463,-3.347 c -2.253,-0.368 -4.42,0.342 -6.723,2.976 2.224,1.117 3.6,3.897 3.6,6.479 0,0.026 -10e-4,0.295 -10e-4,0.322 -0.04,4.42 -3.36,7.338 -7.318,7.338 -3.967,0 -7.473,-3.038 -7.501,-7.493 0,-0.02 -10e-4,-0.28 -10e-4,-0.298 0,-4.335 3.215,-7.551 7.158,-7.551 0.566,0 1.111,0.086 1.657,0.219 2.583,-2.42 4.884,-3.449 6.873,-3.211 0.942,0.114 1.939,0.488 2.538,1.266 l -0.282,-0.047 z"
             style="fill:#231f20;fill-opacity:1;fill-rule:nonzero;stroke:none"
             id="path3268" />
        </g>
        <g
           id="g3270"
           transform="translate(78.634796,110.1458)">
          <path
             d="m 0,0 0.128,-3.019 c 0.009,-0.188 0.009,-0.351 0.009,-0.471 0,-0.179 -0.009,-0.419 -0.026,-0.718 0.111,0.376 0.274,0.778 0.479,1.215 L 1.967,0 4.516,0 3.233,-5.927 l -1.463,0 0.745,3.575 c 0.085,0.419 0.196,0.864 0.325,1.326 l -0.052,0 -2.309,-4.901 -1.463,0 -0.213,4.901 -0.069,0 c -0.145,-0.839 -0.231,-1.309 -0.257,-1.429 l -0.752,-3.472 -1.454,0 L -2.463,0 0,0 z"
             style="fill:#231f20;fill-opacity:1;fill-rule:nonzero;stroke:none"
             id="path3272" />
        </g>
        <g
           id="g3274"
           transform="translate(85.622803,108.6149)">
          <path
             d="m 0,0 -0.958,-4.405 -1.497,0 L -1.497,0 0,0 z m 0.316,1.531 -0.154,-0.787 -1.496,0 0.145,0.787 1.505,0 z"
             style="fill:#231f20;fill-opacity:1;fill-rule:nonzero;stroke:none"
             id="path3276" />
        </g>
        <g
           id="g3278"
           transform="translate(90.557907,104.2099)">
          <path
             d="m 0,0 -1.531,0 0.462,2.207 c 0.034,0.162 0.051,0.308 0.051,0.436 0,0.419 -0.214,0.65 -0.556,0.65 -0.607,0 -1.009,-0.479 -1.214,-1.437 L -3.182,0 l -1.54,0 0.941,4.439 1.378,0 -0.172,-0.787 c 0.496,0.565 1.061,0.856 1.677,0.856 0.906,0 1.437,-0.556 1.437,-1.54 0,-0.282 -0.051,-0.684 -0.163,-1.215 L 0,0 z"
             style="fill:#231f20;fill-opacity:1;fill-rule:nonzero;stroke:none"
             id="path3280" />
        </g>
        <g
           id="g3282"
           transform="translate(94.192596,108.6149)">
          <path
             d="m 0,0 -0.958,-4.405 -1.496,0 L -1.497,0 0,0 z m 0.317,1.531 -0.154,-0.787 -1.497,0 0.145,0.787 1.506,0 z"
             style="fill:#231f20;fill-opacity:1;fill-rule:nonzero;stroke:none"
             id="path3284" />
        </g>
        <g
           id="g3286"
           transform="translate(98.229797,107.5029)">
          <path
             d="m 0,0 c -0.436,0.145 -0.804,0.248 -1.163,0.248 -0.445,0 -0.685,-0.163 -0.685,-0.402 0,-0.308 0.351,-0.342 0.907,-0.573 0.616,-0.257 0.898,-0.582 0.898,-1.086 0,-0.933 -0.769,-1.6 -2.078,-1.6 -0.599,0 -1.181,0.086 -1.754,0.283 l 0.317,1.06 c 0.419,-0.205 0.821,-0.299 1.232,-0.299 0.504,0 0.769,0.145 0.769,0.393 0,0.308 -0.256,0.368 -0.641,0.522 -0.719,0.291 -1.104,0.564 -1.104,1.24 0,0.796 0.762,1.446 2.087,1.446 0.488,0 1.001,-0.094 1.549,-0.266 L 0,0 z"
             style="fill:#231f20;fill-opacity:1;fill-rule:nonzero;stroke:none"
             id="path3288" />
        </g>
        <g
           id="g3290"
           transform="translate(101.5143,108.60629)">
          <path
             d="m 0,0 1.086,0 -0.222,-1.052 -1.086,0 -0.326,-1.531 C -0.59,-2.771 -0.607,-2.9 -0.607,-2.968 c 0,-0.316 0.137,-0.453 0.479,-0.453 0.119,0 0.291,0.025 0.504,0.085 L 0.154,-4.388 c -0.351,-0.06 -0.633,-0.094 -0.847,-0.094 -0.915,0 -1.437,0.487 -1.437,1.334 0,0.154 0.018,0.3 0.043,0.437 l 0.351,1.659 -0.899,0 L -2.412,0 -1.514,0 -1.291,1.044 0.316,1.471 0,0 z"
             style="fill:#231f20;fill-opacity:1;fill-rule:nonzero;stroke:none"
             id="path3292" />
        </g>
        <g
           id="g3294"
           transform="translate(104.08,106.0145)">
          <path
             d="m 0,0 c 0.06,-0.65 0.419,-0.949 1.129,-0.949 0.471,0 0.992,0.111 1.497,0.333 L 2.455,-1.702 C 1.933,-1.865 1.386,-1.95 0.83,-1.95 c -1.386,0 -2.207,0.812 -2.207,2.061 0,0.719 0.308,1.463 0.787,1.933 0.462,0.454 1.129,0.693 1.959,0.693 1.223,0 1.89,-0.693 1.89,-1.899 C 3.259,0.59 3.225,0.308 3.156,0 L 0,0 z m -0.12,4.234 0,0.188 1.6,0 0.821,-1.129 0,-0.103 -1.009,0 -1.412,1.044 z M 2.002,1.052 c 0,0.488 -0.3,0.796 -0.77,0.796 -0.471,0 -0.864,-0.368 -1.035,-1.001 l 1.787,0 c 0.009,0.068 0.018,0.137 0.018,0.205"
             style="fill:#231f20;fill-opacity:1;fill-rule:nonzero;stroke:none"
             id="path3296" />
        </g>
        <g
           id="g3298"
           transform="translate(111.56419,107.349)">
          <path
             d="m 0,0 c -0.274,0.077 -0.496,0.12 -0.667,0.12 -0.702,0 -1.009,-0.436 -1.206,-1.36 l -0.411,-1.899 -1.539,0 0.898,4.413 1.394,0 -0.163,-0.804 c 0.428,0.616 0.856,0.907 1.454,0.907 0.189,0 0.377,-0.034 0.582,-0.094 L 0,0 z"
             style="fill:#231f20;fill-opacity:1;fill-rule:nonzero;stroke:none"
             id="path3300" />
        </g>
        <g
           id="g3302"
           transform="translate(113.1891,106.0145)">
          <path
             d="m 0,0 c 0.06,-0.65 0.419,-0.949 1.129,-0.949 0.47,0 0.992,0.111 1.497,0.333 L 2.455,-1.702 C 1.933,-1.865 1.386,-1.95 0.83,-1.95 c -1.386,0 -2.207,0.812 -2.207,2.061 0,0.719 0.308,1.463 0.787,1.933 0.462,0.454 1.129,0.693 1.959,0.693 1.223,0 1.89,-0.693 1.89,-1.899 C 3.259,0.59 3.224,0.308 3.156,0 L 0,0 z m 2.002,1.052 c 0,0.488 -0.3,0.796 -0.77,0.796 -0.471,0 -0.864,-0.368 -1.035,-1.001 l 1.787,0 c 0.009,0.068 0.018,0.137 0.018,0.205"
             style="fill:#231f20;fill-opacity:1;fill-rule:nonzero;stroke:none"
             id="path3304" />
        </g>
        <g
           id="g3306"
           transform="translate(80.961105,101.5925)">
          <path
             d="m 0,0 -1.249,-5.936 -1.368,0 0.162,0.736 c -0.427,-0.573 -0.974,-0.864 -1.607,-0.864 -1.044,0 -1.72,0.744 -1.72,1.959 0,1.599 0.967,2.685 2.335,2.685 0.642,0 1.146,-0.299 1.446,-0.864 L -1.514,0 0,0 z m -3.105,-2.557 c -0.59,0 -1.103,-0.633 -1.103,-1.514 0,-0.514 0.308,-0.855 0.761,-0.855 0.616,0 1.164,0.632 1.164,1.471 0,0.538 -0.343,0.898 -0.822,0.898"
             style="fill:#231f20;fill-opacity:1;fill-rule:nonzero;stroke:none"
             id="path3308" />
        </g>
        <g
           id="g3310"
           transform="translate(83.185196,100.0531)">
          <path
             d="m 0,0 -0.462,-2.207 c -0.034,-0.154 -0.051,-0.299 -0.051,-0.436 0,-0.427 0.205,-0.659 0.581,-0.659 0.556,0 0.984,0.488 1.189,1.446 L 1.651,0 3.19,0 2.25,-4.396 l -1.378,0 0.171,0.744 c -0.495,-0.565 -1.06,-0.856 -1.676,-0.856 -0.906,0 -1.437,0.548 -1.437,1.531 0,0.291 0.051,0.702 0.163,1.224 L -1.539,0 0,0 z"
             style="fill:#231f20;fill-opacity:1;fill-rule:nonzero;stroke:none"
             id="path3312" />
        </g>
        <g
           id="g3314"
           transform="translate(94.860001,100.1729)">
          <path
             d="m 0,0 c -0.411,0.257 -0.872,0.385 -1.411,0.385 -1.445,0 -2.275,-0.873 -2.275,-2.293 0,-0.923 0.641,-1.522 1.693,-1.522 0.471,0 0.941,0.128 1.42,0.368 l -0.154,-1.369 c -0.564,-0.145 -1.103,-0.222 -1.625,-0.222 -1.89,0 -2.968,1.06 -2.968,2.788 0,0.916 0.351,1.796 0.924,2.387 0.718,0.735 1.582,1.035 2.771,1.035 0.641,0 1.309,-0.12 2.019,-0.351 L 0,0 z"
             style="fill:#231f20;fill-opacity:1;fill-rule:nonzero;stroke:none"
             id="path3316" />
        </g>
        <g
           id="g3318"
           transform="translate(100.052,98.102905)">
          <path
             d="m 0,0 c 0,-1.505 -1.095,-2.574 -2.848,-2.574 -1.412,0 -2.259,0.778 -2.259,2.01 0,1.573 1.061,2.634 2.823,2.634 C -0.855,2.07 0,1.283 0,0 m -2.369,1.061 c -0.616,0 -1.181,-0.667 -1.181,-1.608 0,-0.582 0.351,-0.992 0.847,-0.992 0.616,0 1.155,0.667 1.155,1.608 0,0.615 -0.334,0.992 -0.821,0.992"
             style="fill:#231f20;fill-opacity:1;fill-rule:nonzero;stroke:none"
             id="path3320" />
        </g>
        <g
           id="g3322"
           transform="translate(105.1324,95.656692)">
          <path
             d="m 0,0 -1.531,0 0.462,2.207 c 0.034,0.162 0.051,0.308 0.051,0.436 0,0.419 -0.214,0.65 -0.556,0.65 -0.607,0 -1.009,-0.479 -1.215,-1.437 L -3.182,0 l -1.54,0 0.941,4.439 1.377,0 -0.171,-0.787 c 0.496,0.565 1.061,0.856 1.677,0.856 0.907,0 1.437,-0.556 1.437,-1.54 0,-0.282 -0.052,-0.684 -0.163,-1.214 L 0,0 z"
             style="fill:#231f20;fill-opacity:1;fill-rule:nonzero;stroke:none"
             id="path3324" />
        </g>
        <g
           id="g3326"
           transform="translate(109.9731,98.949707)">
          <path
             d="m 0,0 c -0.436,0.145 -0.804,0.248 -1.163,0.248 -0.445,0 -0.684,-0.163 -0.684,-0.402 0,-0.308 0.35,-0.342 0.906,-0.573 0.616,-0.257 0.898,-0.582 0.898,-1.086 0,-0.932 -0.769,-1.6 -2.078,-1.6 -0.599,0 -1.18,0.086 -1.753,0.283 l 0.316,1.06 c 0.419,-0.205 0.821,-0.299 1.232,-0.299 0.504,0 0.769,0.145 0.769,0.393 0,0.308 -0.256,0.368 -0.641,0.522 -0.719,0.291 -1.103,0.565 -1.103,1.24 0,0.796 0.761,1.446 2.087,1.446 0.487,0 1,-0.094 1.548,-0.265 L 0,0 z"
             style="fill:#231f20;fill-opacity:1;fill-rule:nonzero;stroke:none"
             id="path3328" />
        </g>
        <g
           id="g3330"
           transform="translate(112.0432,97.461502)">
          <path
             d="m 0,0 c 0.06,-0.65 0.419,-0.949 1.129,-0.949 0.47,0 0.992,0.111 1.497,0.333 L 2.455,-1.702 C 1.933,-1.865 1.386,-1.95 0.83,-1.95 c -1.386,0 -2.207,0.812 -2.207,2.061 0,0.719 0.308,1.463 0.787,1.933 0.462,0.454 1.129,0.693 1.958,0.693 1.224,0 1.891,-0.693 1.891,-1.899 C 3.259,0.59 3.225,0.308 3.156,0 L 0,0 z m 2.001,1.052 c 0,0.487 -0.299,0.795 -0.769,0.795 -0.471,0 -0.864,-0.367 -1.035,-1 l 1.787,0 c 0.009,0.068 0.017,0.137 0.017,0.205"
             style="fill:#231f20;fill-opacity:1;fill-rule:nonzero;stroke:none"
             id="path3332" />
        </g>
        <g
           id="g3334"
           transform="translate(118.1844,100.06171)">
          <path
             d="m 0,0 -0.958,-4.405 -1.497,0 L -1.497,0 0,0 z m 0.316,1.531 -0.153,-0.787 -1.497,0 0.145,0.787 1.505,0 z"
             style="fill:#231f20;fill-opacity:1;fill-rule:nonzero;stroke:none"
             id="path3336" />
        </g>
        <g
           id="g3338"
           transform="translate(121.2977,101.584)">
          <path
             d="m 0,0 -1.283,-5.927 -1.522,0 L -1.522,0 0,0 z"
             style="fill:#231f20;fill-opacity:1;fill-rule:nonzero;stroke:none"
             id="path3340" />
        </g>
        <g
           id="g3342"
           transform="translate(125.4799,97.461502)">
          <path
             d="m 0,0 c 0.06,-0.65 0.419,-0.949 1.129,-0.949 0.471,0 0.992,0.111 1.497,0.333 L 2.455,-1.702 C 1.933,-1.865 1.386,-1.95 0.83,-1.95 c -1.386,0 -2.207,0.812 -2.207,2.061 0,0.719 0.308,1.463 0.787,1.933 0.462,0.454 1.129,0.693 1.959,0.693 1.223,0 1.89,-0.693 1.89,-1.899 C 3.259,0.59 3.225,0.308 3.156,0 L 0,0 z m 2.002,1.052 c 0,0.487 -0.3,0.795 -0.77,0.795 -0.471,0 -0.864,-0.367 -1.035,-1 l 1.787,0 c 0.009,0.068 0.018,0.137 0.018,0.205"
             style="fill:#231f20;fill-opacity:1;fill-rule:nonzero;stroke:none"
             id="path3344" />
        </g>
        <g
           id="g3346"
           transform="translate(131.3046,100.0531)">
          <path
             d="M 0,0 0.47,-1.291 1.446,0 3.199,0 1.351,-2.113 l 1.001,-2.283 -1.625,0 -0.522,1.385 -1.009,-1.385 -1.83,0 1.941,2.343 L -1.633,0 0,0 z"
             style="fill:#231f20;fill-opacity:1;fill-rule:nonzero;stroke:none"
             id="path3348" />
        </g>
        <g
           id="g3350"
           transform="translate(135.8891,97.461502)">
          <path
             d="m 0,0 c 0.06,-0.65 0.419,-0.949 1.129,-0.949 0.47,0 0.992,0.111 1.497,0.333 L 2.455,-1.702 C 1.933,-1.865 1.386,-1.95 0.83,-1.95 c -1.386,0 -2.207,0.812 -2.207,2.061 0,0.719 0.308,1.463 0.787,1.933 0.462,0.454 1.129,0.693 1.959,0.693 1.223,0 1.89,-0.693 1.89,-1.899 C 3.259,0.59 3.224,0.308 3.156,0 L 0,0 z m 2.002,1.052 c 0,0.487 -0.3,0.795 -0.77,0.795 -0.471,0 -0.864,-0.367 -1.035,-1 l 1.787,0 c 0.009,0.068 0.018,0.137 0.018,0.205 m -0.659,3.379 1.599,0 0,-0.189 -1.411,-1.043 -1.009,0 0,0.102 0.821,1.13 z"
             style="fill:#231f20;fill-opacity:1;fill-rule:nonzero;stroke:none"
             id="path3352" />
        </g>
        <g
           id="g3354"
           transform="translate(143.58681,98.829895)">
          <path
             d="m 0,0 c -0.325,0.154 -0.642,0.231 -0.941,0.231 -0.821,0 -1.36,-0.513 -1.36,-1.266 0,-0.658 0.437,-1.078 1.138,-1.078 0.282,0 0.564,0.069 0.872,0.206 L -0.47,-3.071 C -0.933,-3.19 -1.343,-3.25 -1.727,-3.25 c -1.352,0 -2.182,0.83 -2.182,2.044 0,1.488 1.069,2.557 2.788,2.557 0.497,0 0.985,-0.094 1.472,-0.29 L 0,0 z"
             style="fill:#231f20;fill-opacity:1;fill-rule:nonzero;stroke:none"
             id="path3356" />
        </g>
        <g
           id="g3358"
           transform="translate(146.1526,100.0531)">
          <path
             d="m 0,0 -0.462,-2.207 c -0.034,-0.154 -0.051,-0.299 -0.051,-0.436 0,-0.427 0.205,-0.659 0.581,-0.659 0.557,0 0.984,0.488 1.189,1.446 L 1.651,0 3.19,0 2.25,-4.396 l -1.377,0 0.17,0.744 c -0.495,-0.565 -1.06,-0.856 -1.676,-0.856 -0.906,0 -1.437,0.548 -1.437,1.531 0,0.291 0.051,0.702 0.163,1.224 L -1.539,0 0,0 z"
             style="fill:#231f20;fill-opacity:1;fill-rule:nonzero;stroke:none"
             id="path3360" />
        </g>
        <g
           id="g3362"
           transform="translate(152.4136,100.0531)">
          <path
             d="m 0,0 1.086,0 -0.222,-1.052 -1.086,0 -0.326,-1.531 c -0.042,-0.188 -0.059,-0.316 -0.059,-0.385 0,-0.316 0.137,-0.453 0.478,-0.453 0.12,0 0.292,0.025 0.506,0.085 L 0.154,-4.388 c -0.35,-0.06 -0.633,-0.094 -0.847,-0.094 -0.915,0 -1.437,0.488 -1.437,1.334 0,0.154 0.018,0.3 0.043,0.437 l 0.351,1.659 -0.899,0 L -2.412,0 -1.514,0 -1.291,1.044 0.316,1.471 0,0 z"
             style="fill:#231f20;fill-opacity:1;fill-rule:nonzero;stroke:none"
             id="path3364" />
        </g>
        <g
           id="g3366"
           transform="translate(155.9801,100.06171)">
          <path
             d="m 0,0 -0.958,-4.405 -1.497,0 L -1.497,0 0,0 z m 0.316,1.531 -0.153,-0.787 -1.497,0 0.145,0.787 1.505,0 z"
             style="fill:#231f20;fill-opacity:1;fill-rule:nonzero;stroke:none"
             id="path3368" />
        </g>
        <g
           id="g3370"
           transform="translate(160.2395,100.6689)">
          <path
             d="m 0,0 c -0.171,0.077 -0.316,0.103 -0.462,0.103 -0.445,0 -0.599,-0.248 -0.718,-0.719 l 1.112,0 -0.223,-1.069 -1.12,0 -0.701,-3.327 -1.523,0 0.71,3.327 -0.915,0 0.23,1.069 0.907,0 c 0.146,0.89 0.607,1.6 1.958,1.6 0.326,0 0.651,-0.086 0.976,-0.197 L 0,0 z"
             style="fill:#231f20;fill-opacity:1;fill-rule:nonzero;stroke:none"
             id="path3372" />
        </g>
        <path
           d="m 186.425,95.832 -12.25,0 0,-7.509 12.25,0 0,7.509 z"
           style="fill:#006cb7;fill-opacity:1;fill-rule:evenodd;stroke:none"
           id="path3374" />
        <g
           id="g3376"
           transform="translate(180.30141,95.438904)">
          <path
             d="m 0,0 c -0.09,-0.165 -0.291,-0.401 -0.625,-0.825 -0.393,-0.488 -0.325,-1.137 -0.139,-1.523 0.212,-0.443 0.336,-0.812 0.431,-1.163 0.135,-0.507 0.046,-1.185 0.055,-1.123 l -0.339,0 c 0,0.827 -0.257,1.607 -0.882,1.954 -0.888,0.493 -1.766,-0.362 -1.486,-1.25 0.147,-0.463 0.408,-0.621 0.48,-0.621 0,0 -0.119,0.513 0.25,0.774 0.348,0.246 0.778,0.098 0.978,-0.195 0.19,-0.28 0.22,-0.662 0.22,-0.662 l -0.638,0 0,-0.474 1.283,0.002 c 0,0 -0.035,-0.667 -0.736,-0.603 0,0 0.086,-0.524 0.736,-0.248 0,0 -0.035,-0.553 0.412,-0.829 0.446,0.276 0.411,0.829 0.411,0.829 0.653,-0.276 0.737,0.248 0.737,0.248 -0.702,-0.064 -0.737,0.603 -0.737,0.603 l 1.284,-0.002 0,0.474 -0.638,0 c 0,0 0.03,0.382 0.218,0.662 0.201,0.293 0.629,0.441 0.978,0.195 0.371,-0.261 0.25,-0.774 0.25,-0.774 0.075,0 0.336,0.158 0.482,0.621 0.279,0.888 -0.598,1.743 -1.486,1.25 C 0.874,-3.027 0.616,-3.807 0.616,-4.634 l -0.34,0 c 0.011,-0.062 -0.08,0.616 0.056,1.123 0.095,0.351 0.22,0.72 0.431,1.163 0.186,0.386 0.254,1.035 -0.137,1.523 C 0.291,-0.401 0.09,-0.165 0,0"
             style="fill:#ffffff;fill-opacity:1;fill-rule:evenodd;stroke:none"
             id="path3378" />
        </g>
        <path
           d="m 202.247,95.832 -12.252,0 0,-7.509 12.252,0 0,7.509 z"
           style="fill:#006cb7;fill-opacity:1;fill-rule:evenodd;stroke:none"
           id="path3380" />
        <g
           id="g3382"
           transform="translate(196.1205,95.438904)">
          <path
             d="m 0,0 c -0.092,-0.165 -0.292,-0.401 -0.629,-0.825 -0.392,-0.488 -0.321,-1.137 -0.137,-1.523 0.214,-0.443 0.337,-0.812 0.433,-1.163 0.134,-0.507 0.046,-1.185 0.054,-1.123 l -0.338,0 c 0,0.827 -0.259,1.607 -0.883,1.954 -0.889,0.493 -1.766,-0.362 -1.488,-1.25 0.148,-0.463 0.409,-0.621 0.482,-0.621 0,0 -0.121,0.513 0.251,0.774 0.346,0.246 0.778,0.098 0.976,-0.195 0.19,-0.28 0.221,-0.662 0.221,-0.662 l -0.64,0 0,-0.474 1.283,0.002 c 0,0 -0.034,-0.667 -0.736,-0.603 0,0 0.086,-0.524 0.736,-0.248 0,0 -0.034,-0.553 0.415,-0.829 0.444,0.276 0.41,0.829 0.41,0.829 0.651,-0.276 0.738,0.248 0.738,0.248 C 0.444,-5.773 0.41,-5.106 0.41,-5.106 l 1.284,-0.002 0,0.474 -0.639,0 c 0,0 0.032,0.382 0.218,0.662 0.201,0.293 0.631,0.441 0.982,0.195 0.367,-0.261 0.25,-0.774 0.25,-0.774 0.071,0 0.333,0.158 0.477,0.621 0.277,0.888 -0.6,1.743 -1.487,1.25 -0.622,-0.347 -0.88,-1.127 -0.88,-1.954 l -0.337,0 c 0.008,-0.062 -0.083,0.616 0.053,1.123 0.093,0.351 0.22,0.72 0.43,1.163 0.185,0.386 0.255,1.035 -0.136,1.523 C 0.291,-0.401 0.087,-0.165 0,0"
             style="fill:#ffffff;fill-opacity:1;fill-rule:evenodd;stroke:none"
             id="path3384" />
        </g>
        <path
           d="m 186.425,84.748 -12.25,0 0,-7.507 12.25,0 0,7.507 z"
           style="fill:#006cb7;fill-opacity:1;fill-rule:evenodd;stroke:none"
           id="path3386" />
        <g
           id="g3388"
           transform="translate(180.30141,84.354401)">
          <path
             d="M 0,0 C -0.09,-0.165 -0.291,-0.401 -0.625,-0.823 -1.018,-1.31 -0.95,-1.96 -0.764,-2.346 c 0.212,-0.443 0.336,-0.811 0.431,-1.162 0.135,-0.507 0.046,-1.187 0.055,-1.125 l -0.339,0 c 0,0.828 -0.257,1.609 -0.882,1.953 -0.888,0.496 -1.766,-0.36 -1.486,-1.246 0.147,-0.464 0.408,-0.623 0.48,-0.623 0,0 -0.119,0.513 0.25,0.775 0.348,0.244 0.778,0.097 0.978,-0.196 0.19,-0.28 0.22,-0.663 0.22,-0.663 l -0.638,0 0,-0.471 1.283,0 c 0,0 -0.035,-0.667 -0.736,-0.603 0,0 0.086,-0.524 0.736,-0.249 0,0 -0.035,-0.551 0.412,-0.826 0.446,0.275 0.411,0.826 0.411,0.826 0.653,-0.275 0.737,0.249 0.737,0.249 -0.702,-0.064 -0.737,0.603 -0.737,0.603 l 1.284,0 0,0.471 -0.638,0 c 0,0 0.03,0.383 0.218,0.663 0.201,0.293 0.629,0.44 0.978,0.196 0.371,-0.262 0.25,-0.775 0.25,-0.775 0.075,0 0.336,0.159 0.482,0.623 C 3.264,-3.04 2.387,-2.184 1.499,-2.68 0.874,-3.024 0.616,-3.805 0.616,-4.633 l -0.34,0 c 0.011,-0.062 -0.08,0.618 0.056,1.125 0.095,0.351 0.22,0.719 0.431,1.162 C 0.949,-1.96 1.017,-1.31 0.626,-0.823 0.291,-0.401 0.09,-0.165 0,0"
             style="fill:#ffffff;fill-opacity:1;fill-rule:evenodd;stroke:none"
             id="path3390" />
        </g>
        <path
           d="m 202.247,84.748 -12.252,0 0,-7.507 12.252,0 0,7.507 z"
           style="fill:#006cb7;fill-opacity:1;fill-rule:evenodd;stroke:none"
           id="path3392" />
        <g
           id="g3394"
           transform="translate(196.1205,84.354401)">
          <path
             d="M 0,0 C -0.092,-0.165 -0.292,-0.401 -0.629,-0.823 -1.021,-1.31 -0.95,-1.96 -0.766,-2.346 c 0.214,-0.443 0.337,-0.811 0.433,-1.162 0.134,-0.507 0.046,-1.187 0.054,-1.125 l -0.338,0 c 0,0.828 -0.259,1.609 -0.883,1.953 -0.889,0.496 -1.766,-0.36 -1.488,-1.246 0.148,-0.464 0.409,-0.623 0.482,-0.623 0,0 -0.121,0.513 0.251,0.775 0.346,0.244 0.778,0.097 0.976,-0.196 0.19,-0.28 0.221,-0.663 0.221,-0.663 l -0.64,0 0,-0.471 1.283,0 c 0,0 -0.034,-0.667 -0.736,-0.603 0,0 0.086,-0.524 0.736,-0.249 0,0 -0.034,-0.551 0.415,-0.826 0.444,0.275 0.41,0.826 0.41,0.826 0.651,-0.275 0.738,0.249 0.738,0.249 C 0.444,-5.771 0.41,-5.104 0.41,-5.104 l 1.284,0 0,0.471 -0.639,0 c 0,0 0.032,0.383 0.218,0.663 0.201,0.293 0.631,0.44 0.982,0.196 0.367,-0.262 0.25,-0.775 0.25,-0.775 0.071,0 0.333,0.159 0.477,0.623 0.277,0.886 -0.6,1.742 -1.487,1.246 -0.622,-0.344 -0.88,-1.125 -0.88,-1.953 l -0.337,0 c 0.008,-0.062 -0.083,0.618 0.053,1.125 0.093,0.351 0.22,0.719 0.43,1.162 C 0.946,-1.96 1.016,-1.31 0.625,-0.823 0.291,-0.401 0.087,-0.165 0,0"
             style="fill:#ffffff;fill-opacity:1;fill-rule:evenodd;stroke:none"
             id="path3396" />
        </g>
      </g>
    </g>
  </g>
</svg>
